<svg height="448pt" viewBox="0 0 448 448" width="448pt" xmlns="http://www.w3.org/2000/svg"><path d="m297.539062 135.375 15.085938 15.082031-162.164062 162.164063-15.085938-15.085938zm0 0"/><path d="m150.484375 135.367188 162.160156 162.164062-15.085937 15.085938-162.160156-162.164063zm0 0"/><path d="m224 448c-123.464844 0-224-100.535156-224-224s100.535156-224 224-224 224 100.535156 224 224-100.535156 224-224 224zm0-426.667969c-111.734375 0-202.667969 90.933594-202.667969 202.667969s90.933594 202.667969 202.667969 202.667969 202.667969-90.933594 202.667969-202.667969-90.933594-202.667969-202.667969-202.667969zm0 0"/></svg>