<?xml version="1.0" encoding="UTF-8"?>
<svg width="48px" height="48px" viewBox="0 0 48 48" version="1.1" xmlns="http://www.w3.org/2000/svg" xmlns:xlink="http://www.w3.org/1999/xlink">
    <!-- Generator: Sketch 63.1 (92452) - https://sketch.com -->
    <title>facebook (2)</title>
    <desc>Created with Sketch.</desc>
    <g id="Page-1" stroke="none" stroke-width="1" fill="none" fill-rule="evenodd">
        <g id="Desktop-HD-Copy" transform="translate(-698.000000, -4765.000000)" fill="#000000" fill-rule="nonzero">
            <g id="facebook-(2)" transform="translate(698.000000, 4765.000000)">
                <path d="M7.03125,48 L22.6875,48 L22.6875,30.9375 L17.0625,30.9375 L17.0625,25.3125 L22.6875,25.3125 L22.6875,18.28125 C22.6875,14.4041748 25.8416748,11.25 29.71875,11.25 L36.75,11.25 L36.75,16.875 L31.125,16.875 C29.5740967,16.875 28.3125,18.1365967 28.3125,19.6875 L28.3125,25.3125 L36.4962158,25.3125 L35.5587158,30.9375 L28.3125,30.9375 L28.3125,48 L40.96875,48 C44.8458252,48 48,44.8458252 48,40.96875 L48,7.03125 C48,3.15417478 44.8458252,0 40.96875,0 L7.03125,0 C3.15417478,0 0,3.15417478 0,7.03125 L0,40.96875 C0,44.8458252 3.15417478,48 7.03125,48 Z M2.8125,7.03125 C2.8125,4.70507812 4.70507812,2.8125 7.03125,2.8125 L40.96875,2.8125 C43.2949219,2.8125 45.1875,4.70507812 45.1875,7.03125 L45.1875,40.96875 C45.1875,43.2949219 43.2949219,45.1875 40.96875,45.1875 L31.125,45.1875 L31.125,33.75 L37.9412842,33.75 L39.8162842,22.5 L31.125,22.5 L31.125,19.6875 L39.5625,19.6875 L39.5625,8.4375 L29.71875,8.4375 C24.2907714,8.4375 19.875,12.8532714 19.875,18.28125 L19.875,22.5 L14.25,22.5 L14.25,33.75 L19.875,33.75 L19.875,45.1875 L7.03125,45.1875 C4.70507812,45.1875 2.8125,43.2949219 2.8125,40.96875 L2.8125,7.03125 Z" id="Shape"></path>
            </g>
        </g>
    </g>
</svg>