<?xml version="1.0" encoding="iso-8859-1"?>
<!-- Generator: Adobe Illustrator 19.0.0, SVG Export Plug-In . SVG Version: 6.00 Build 0)  -->
<svg version="1.1" id="Capa_1" xmlns="http://www.w3.org/2000/svg" xmlns:xlink="http://www.w3.org/1999/xlink" x="0px" y="0px"
	 viewBox="0 0 512 512" style="enable-background:new 0 0 512 512;" xml:space="preserve">
<g>
	<g>
		<path d="M484.322,64.74H308.698c-15.261,0-27.677,12.416-27.677,27.678v251.273c0,4.143,3.357,7.5,7.5,7.5s7.5-3.357,7.5-7.5
			V171.87H497v211.304H296.021v-8.865c0-4.143-3.357-7.5-7.5-7.5s-7.5,3.357-7.5,7.5v45.273c0,15.262,12.416,27.678,27.677,27.678
			h175.624c15.262,0,27.678-12.416,27.678-27.678V92.418C512,77.156,499.584,64.74,484.322,64.74z M497,419.582
			c0,6.99-5.687,12.678-12.678,12.678H308.698c-6.99,0-12.677-5.688-12.677-12.678v-21.408H497V419.582z M497,156.87H296.021
			v-28.682H497V156.87z M497,113.189H296.021V92.418c0-6.99,5.687-12.678,12.677-12.678h175.624c6.99,0,12.678,5.688,12.678,12.678
			V113.189z"/>
	</g>
</g>
<g>
	<g>
		<path d="M404.492,88.965h-56.15c-4.143,0-7.5,3.357-7.5,7.5c0,4.143,3.357,7.5,7.5,7.5h56.15c4.143,0,7.5-3.357,7.5-7.5
			C411.992,92.322,408.635,88.965,404.492,88.965z"/>
	</g>
</g>
<g>
	<g>
		<path d="M448.778,88.403c-4.143,0-7.5,3.357-7.5,7.5v1.123c0,4.143,3.358,7.5,7.5,7.5c4.143,0,7.5-3.357,7.5-7.5v-1.123
			C456.278,91.76,452.921,88.403,448.778,88.403z"/>
	</g>
</g>
<g>
	<g>
		<path d="M429.253,88.403c-4.143,0-7.5,3.357-7.5,7.5v1.123c0,4.143,3.357,7.5,7.5,7.5s7.5-3.357,7.5-7.5v-1.123
			C436.753,91.76,433.396,88.403,429.253,88.403z"/>
	</g>
</g>
<g>
	<g>
		<path d="M412.396,407.717h-31.77c-4.143,0-7.5,3.357-7.5,7.5s3.357,7.5,7.5,7.5h31.77c4.143,0,7.5-3.357,7.5-7.5
			S416.538,407.717,412.396,407.717z"/>
	</g>
</g>
<g>
	<g>
		<path d="M203.302,64.74H27.677C12.416,64.74,0,77.156,0,92.418v159.273c0,4.143,3.358,7.5,7.5,7.5s7.5-3.357,7.5-7.5V128.188
			h200.979v254.985H15V282.309c0-4.143-3.358-7.5-7.5-7.5s-7.5,3.357-7.5,7.5v137.273c0,15.262,12.416,27.678,27.677,27.678h175.625
			c15.261,0,27.677-12.416,27.677-27.678V92.418C230.979,77.156,218.563,64.74,203.302,64.74z M215.979,419.582
			c0,6.99-5.687,12.678-12.677,12.678H27.677c-6.99,0-12.677-5.688-12.677-12.678v-21.408h200.979V419.582z M215.979,113.189H15
			v-0.001v-20.77c0-6.99,5.687-12.678,12.677-12.678h175.625c6.99,0,12.677,5.688,12.677,12.678V113.189z"/>
	</g>
</g>
<g>
	<g>
		<path d="M123.471,88.965H67.32c-4.142,0-7.5,3.357-7.5,7.5c0,4.143,3.358,7.5,7.5,7.5h56.15c4.142,0,7.5-3.357,7.5-7.5
			C130.97,92.322,127.613,88.965,123.471,88.965z"/>
	</g>
</g>
<g>
	<g>
		<path d="M167.757,88.403c-4.142,0-7.5,3.357-7.5,7.5v1.123c0,4.143,3.358,7.5,7.5,7.5c4.142,0,7.5-3.357,7.5-7.5v-1.123
			C175.257,91.761,171.899,88.403,167.757,88.403z"/>
	</g>
</g>
<g>
	<g>
		<path d="M148.232,88.403c-4.142,0-7.5,3.357-7.5,7.5v1.123c0,4.143,3.358,7.5,7.5,7.5c4.142,0,7.5-3.357,7.5-7.5v-1.123
			C155.732,91.761,152.374,88.403,148.232,88.403z"/>
	</g>
</g>
<g>
	<g>
		<path d="M131.375,407.717h-31.77c-4.142,0-7.5,3.357-7.5,7.5s3.358,7.5,7.5,7.5h31.77c4.142,0,7.5-3.357,7.5-7.5
			S135.517,407.717,131.375,407.717z"/>
	</g>
</g>
<g>
	<g>
		<path d="M197.464,173.266h-25.155c-4.142,0-7.5,3.357-7.5,7.5s3.358,7.5,7.5,7.5h17.655v34.185H41.015v-34.185h100.676
			c4.142,0,7.5-3.357,7.5-7.5s-3.358-7.5-7.5-7.5H33.515c-4.142,0-7.5,3.357-7.5,7.5v49.185c0,4.143,3.358,7.5,7.5,7.5h163.949
			c4.142,0,7.5-3.357,7.5-7.5v-49.185C204.964,176.623,201.606,173.266,197.464,173.266z"/>
	</g>
</g>
<g>
	<g>
		<path d="M95.396,248.5h-59.49c-4.142,0-7.5,3.357-7.5,7.5s3.358,7.5,7.5,7.5h59.489c4.142,0,7.5-3.357,7.5-7.5
			S99.538,248.5,95.396,248.5z"/>
	</g>
</g>
<g>
	<g>
		<path d="M95.396,274.55h-59.49c-4.142,0-7.5,3.357-7.5,7.5s3.358,7.5,7.5,7.5h59.489c4.142,0,7.5-3.357,7.5-7.5
			S99.538,274.55,95.396,274.55z"/>
	</g>
</g>
<g>
	<g>
		<path d="M95.396,300.6h-59.49c-4.142,0-7.5,3.357-7.5,7.5s3.358,7.5,7.5,7.5h59.489c4.142,0,7.5-3.357,7.5-7.5
			S99.538,300.6,95.396,300.6z"/>
	</g>
</g>
<g>
	<g>
		<path d="M95.396,326.65h-59.49c-4.142,0-7.5,3.357-7.5,7.5s3.358,7.5,7.5,7.5h59.489c4.142,0,7.5-3.357,7.5-7.5
			S99.538,326.65,95.396,326.65z"/>
	</g>
</g>
<g>
	<g>
		<path d="M95.396,352.7h-59.49c-4.142,0-7.5,3.357-7.5,7.5s3.358,7.5,7.5,7.5h59.489c4.142,0,7.5-3.357,7.5-7.5
			S99.538,352.7,95.396,352.7z"/>
	</g>
</g>
<g>
	<g>
		<path d="M95.396,145.258h-59.49c-4.142,0-7.5,3.357-7.5,7.5s3.358,7.5,7.5,7.5h59.49c4.142,0,7.5-3.357,7.5-7.5
			S99.538,145.258,95.396,145.258z"/>
	</g>
</g>
<g>
	<g>
		<path d="M197.502,248.5h-74.031c-4.142,0-7.5,3.357-7.5,7.5s3.358,7.5,7.5,7.5h74.031c4.142,0,7.5-3.357,7.5-7.5
			S201.644,248.5,197.502,248.5z"/>
	</g>
</g>
<g>
	<g>
		<path d="M197.502,274.55h-74.031c-4.142,0-7.5,3.357-7.5,7.5s3.358,7.5,7.5,7.5h74.031c4.142,0,7.5-3.357,7.5-7.5
			S201.644,274.55,197.502,274.55z"/>
	</g>
</g>
<g>
	<g>
		<path d="M197.502,300.6h-74.031c-4.142,0-7.5,3.357-7.5,7.5s3.358,7.5,7.5,7.5h74.031c4.142,0,7.5-3.357,7.5-7.5
			S201.644,300.6,197.502,300.6z"/>
	</g>
</g>
<g>
	<g>
		<path d="M197.502,326.65h-74.031c-4.142,0-7.5,3.357-7.5,7.5s3.358,7.5,7.5,7.5h74.031c4.142,0,7.5-3.357,7.5-7.5
			S201.644,326.65,197.502,326.65z"/>
	</g>
</g>
<g>
	<g>
		<path d="M197.502,352.7h-74.031c-4.142,0-7.5,3.357-7.5,7.5s3.358,7.5,7.5,7.5h74.031c4.142,0,7.5-3.357,7.5-7.5
			S201.644,352.7,197.502,352.7z"/>
	</g>
</g>
<g>
	<g>
		<path d="M429.253,135.029H314.278c-4.143,0-7.5,3.357-7.5,7.5s3.357,7.5,7.5,7.5h114.975c4.143,0,7.5-3.357,7.5-7.5
			S433.396,135.029,429.253,135.029z"/>
	</g>
</g>
<g>
	<g>
		<path d="M380.626,183.853h-61.308c-4.143,0-7.5,3.357-7.5,7.5v61.308c0,4.143,3.358,7.5,7.5,7.5h61.308c4.143,0,7.5-3.357,7.5-7.5
			v-61.308C388.126,187.21,384.769,183.853,380.626,183.853z M373.126,245.162h-46.308v-46.308h46.308V245.162z"/>
	</g>
</g>
<g>
	<g>
		<path d="M473.704,183.853h-61.308c-4.143,0-7.5,3.357-7.5,7.5v61.308c0,4.143,3.357,7.5,7.5,7.5h61.308c4.143,0,7.5-3.357,7.5-7.5
			v-61.308C481.204,187.21,477.847,183.853,473.704,183.853z M466.204,245.162h-46.308v-46.308h46.308V245.162z"/>
	</g>
</g>
<g>
	<g>
		<path d="M380.626,267.536h-61.308c-4.143,0-7.5,3.357-7.5,7.5s3.358,7.5,7.5,7.5h61.308c4.143,0,7.5-3.357,7.5-7.5
			S384.769,267.536,380.626,267.536z"/>
	</g>
</g>
<g>
	<g>
		<path d="M380.626,291.486h-61.308c-4.143,0-7.5,3.357-7.5,7.5s3.358,7.5,7.5,7.5h61.308c4.143,0,7.5-3.357,7.5-7.5
			S384.769,291.486,380.626,291.486z"/>
	</g>
</g>
<g>
	<g>
		<path d="M380.626,315.438h-61.308c-4.143,0-7.5,3.357-7.5,7.5s3.358,7.5,7.5,7.5h61.308c4.143,0,7.5-3.357,7.5-7.5
			S384.769,315.438,380.626,315.438z"/>
	</g>
</g>
<g>
	<g>
		<path d="M370.226,349.362c-4.143,0-7.5,3.358-7.5,7.5v1.144c0,4.143,3.357,7.5,7.5,7.5s7.5-3.357,7.5-7.5v-1.144
			C377.726,352.719,374.369,349.362,370.226,349.362z"/>
	</g>
</g>
<g>
	<g>
		<path d="M396.511,349.362c-4.143,0-7.5,3.357-7.5,7.5v1.144c0,4.143,3.357,7.5,7.5,7.5s7.5-3.358,7.5-7.5v-1.144
			C404.011,352.719,400.654,349.362,396.511,349.362z"/>
	</g>
</g>
<g>
	<g>
		<path d="M422.796,349.362c-4.143,0-7.5,3.358-7.5,7.5v1.144c0,4.143,3.357,7.5,7.5,7.5s7.5-3.357,7.5-7.5v-1.144
			C430.296,352.719,426.939,349.362,422.796,349.362z"/>
	</g>
</g>
<g>
	<g>
		<path d="M473.704,267.536h-61.308c-4.143,0-7.5,3.357-7.5,7.5s3.357,7.5,7.5,7.5h61.308c4.143,0,7.5-3.357,7.5-7.5
			S477.847,267.536,473.704,267.536z"/>
	</g>
</g>
<g>
	<g>
		<path d="M473.704,291.486h-61.308c-4.143,0-7.5,3.357-7.5,7.5s3.357,7.5,7.5,7.5h61.308c4.143,0,7.5-3.357,7.5-7.5
			S477.847,291.486,473.704,291.486z"/>
	</g>
</g>
<g>
	<g>
		<path d="M473.704,315.438h-61.308c-4.143,0-7.5,3.357-7.5,7.5s3.357,7.5,7.5,7.5h61.308c4.143,0,7.5-3.357,7.5-7.5
			S477.847,315.438,473.704,315.438z"/>
	</g>
</g>
<g>
	<g>
		<path d="M270.292,250.696l-17.977-17.976c-2.929-2.928-7.678-2.928-10.606,0c-2.929,2.93-2.929,7.678,0,10.607L254.382,256
			l-12.673,12.673c-2.929,2.93-2.929,7.678,0,10.607c1.464,1.464,3.384,2.196,5.303,2.196c1.919,0,3.839-0.732,5.303-2.196
			l17.977-17.977C273.221,258.373,273.221,253.625,270.292,250.696z"/>
	</g>
</g>
<g>
</g>
<g>
</g>
<g>
</g>
<g>
</g>
<g>
</g>
<g>
</g>
<g>
</g>
<g>
</g>
<g>
</g>
<g>
</g>
<g>
</g>
<g>
</g>
<g>
</g>
<g>
</g>
<g>
</g>
</svg>
